HIERARCHY
ROOT Hips
{
 OFFSET 0.000000 0.000000 0.000000
 CHANNELS 6 Xposition Yposition Zposition Yrotation Xrotation Zrotation
 JOINT Chest
 {
  OFFSET 0.000000 9.585900 0.002600
  CHANNELS 3 Yrotation Xrotation Zrotation
  JOINT Chest2
  {
   OFFSET 0.000000 9.601200 -0.005300
   CHANNELS 3 Yrotation Xrotation Zrotation
   JOINT Chest3
   {
    OFFSET 0.000000 9.561800 0.000000
    CHANNELS 3 Yrotation Xrotation Zrotation
    JOINT Chest4
    {
     OFFSET 0.000000 9.552100 0.000000
     CHANNELS 3 Yrotation Xrotation Zrotation
     JOINT Neck
     {
      OFFSET 0.000000 14.453000 0.000000
      CHANNELS 3 Yrotation Xrotation Zrotation
      JOINT Head
      {
       OFFSET 0.000000 8.936500 -0.011300
       CHANNELS 3 Yrotation Xrotation Zrotation
       End Site
       {
        OFFSET 0.000000 17.073600 -0.006000
       }
      }
     }
     JOINT RightCollar
     {
      OFFSET -2.921100 9.558500 0.000000
      CHANNELS 3 Yrotation Xrotation Zrotation
      JOINT RightShoulder
      {
       OFFSET -13.519700 0.000000 0.000000
       CHANNELS 3 Yrotation Xrotation Zrotation
       JOINT RightElbow
       {
        OFFSET 0.000000 -29.696600 0.000000
        CHANNELS 3 Yrotation Xrotation Zrotation
        JOINT RightWrist
        {
         OFFSET 0.000000 -24.004700 0.000000
         CHANNELS 3 Yrotation Xrotation Zrotation
         End Site
         {
          OFFSET 0.000000 -17.728500 0.000000
         }
        }
       }
      }
     }
     JOINT LeftCollar
     {
      OFFSET 2.921100 9.558500 0.000000
      CHANNELS 3 Yrotation Xrotation Zrotation
      JOINT LeftShoulder
      {
       OFFSET 13.519700 0.000000 0.000000
       CHANNELS 3 Yrotation Xrotation Zrotation
       JOINT LeftElbow
       {
        OFFSET 0.000000 -29.696600 0.000000
        CHANNELS 3 Yrotation Xrotation Zrotation
        JOINT LeftWrist
        {
         OFFSET 0.000000 -24.004700 0.000000
         CHANNELS 3 Yrotation Xrotation Zrotation
         End Site
         {
          OFFSET 0.000000 -17.728500 0.000000
         }
        }
       }
      }
     }
    }
   }
  }
 }
 JOINT RightHip
 {
  OFFSET -7.771700 -0.012900 -0.001300
  CHANNELS 3 Yrotation Xrotation Zrotation
  JOINT RightKnee
  {
   OFFSET 0.000000 -40.869800 0.001200
   CHANNELS 3 Yrotation Xrotation Zrotation
   JOINT RightAnkle
   {
    OFFSET 0.000000 -39.717900 0.002100
    CHANNELS 3 Yrotation Xrotation Zrotation
    JOINT RightToe
    {
     OFFSET 0.000000 -4.965400 11.033500
     CHANNELS 3 Yrotation Xrotation Zrotation
     End Site
     {
      OFFSET 0.000000 -1.423100 5.872300
     }
    }
   }
  }
 }
 JOINT LeftHip
 {
  OFFSET 7.771700 -0.012900 -0.001300
  CHANNELS 3 Yrotation Xrotation Zrotation
  JOINT LeftKnee
  {
   OFFSET 0.000000 -40.869800 0.001200
   CHANNELS 3 Yrotation Xrotation Zrotation
   JOINT LeftAnkle
   {
    OFFSET 0.000000 -39.717900 0.002100
    CHANNELS 3 Yrotation Xrotation Zrotation
    JOINT LeftToe
    {
     OFFSET 0.000000 -4.965400 11.033500
     CHANNELS 3 Yrotation Xrotation Zrotation
     End Site
     {
      OFFSET 0.000000 -1.423100 5.872300
     }
    }
   }
  }
 }
}
MOTION
Frames: 7
Frame Time: 0.008333
-79.912332 57.342324 3.968270 159.671471 -8.709469 0.556012 2.186839 6.688874 0.322612 0.081585 0.271324 -0.015438 0.169382 0.505861 -0.014142 1.926333 6.335811 -0.209149 1.318369 17.169468 -1.109384 2.821111 -3.835515 -2.533937 2.461951 8.605683 2.143960 -5.034718 -10.492558 -10.341164 -55.924023 -77.341960 82.299301 -2.612531 4.715661 -17.021410 -4.968603 9.518081 -1.699163 16.288787 -5.250263 1.109633 72.628434 -73.632311 -95.417349 -3.600138 12.137208 8.956299 -17.876117 -63.421827 10.585762 -29.652759 73.961193 -29.174263 -1.375759 -7.758080 -3.682625 -0.277369 0.639974 -0.095653 0.082448 -65.607225 17.473330 41.425655 65.600553 34.659808 -18.114477 -10.419149 3.309286 -0.109506 -0.828061 -0.017557
-79.920533 57.336577 3.973823 159.660767 -8.776764 0.539447 2.193482 6.749121 0.340595 0.070374 0.252402 -0.022140 0.166081 0.515246 -0.014130 1.939631 6.375985 -0.205823 1.326923 17.155064 -1.117427 2.861053 -3.818811 -2.588573 2.461373 8.648664 2.170713 -4.959950 -10.579489 -10.430583 -55.376048 -77.166574 81.645784 -2.962405 4.380846 -17.061763 -4.972271 9.511757 -1.699103 16.278436 -5.281017 1.148762 72.693627 -73.648318 -95.578809 -3.521509 11.953009 8.611908 -17.832292 -63.358711 10.574453 -29.692176 73.947766 -29.223870 -1.391319 -7.761224 -3.672177 -0.268855 0.653962 -0.090976 0.048774 -65.546207 17.518046 41.428814 65.595554 34.662557 -18.131121 -10.380733 3.298948 -0.105196 -0.845888 -0.008085
-79.930682 57.331697 3.982445 159.667949 -8.833660 0.516559 2.171560 6.775911 0.353913 0.076264 0.260946 -0.020056 0.162899 0.517705 -0.016316 1.950609 6.418330 -0.200150 1.349287 17.184681 -1.161793 2.887419 -3.838816 -2.604774 2.456809 8.706333 2.196694 -4.879612 -10.661983 -10.527494 -54.940826 -76.984100 81.094105 -3.350214 3.968697 -17.066256 -4.979351 9.507305 -1.702047 16.238314 -5.332814 1.236522 72.731334 -73.609659 -95.675396 -3.407831 11.765570 8.248282 -17.833073 -63.301904 10.581601 -29.693707 73.936769 -29.238725 -1.393055 -7.764377 -3.664028 -0.273939 0.669337 -0.088185 -0.013848 -65.496068 17.569316 41.440831 65.576717 34.675520 -18.150488 -10.340657 3.288132 -0.079043 -0.821002 -0.006084
-79.939620 57.329064 3.985937 159.639074 -8.932144 0.495080 2.187475 6.840755 0.372907 0.077094 0.267018 -0.017419 0.164904 0.522917 -0.018745 1.962716 6.464096 -0.189005 1.366375 17.189980 -1.182740 2.925995 -3.827537 -2.649052 2.452112 8.750592 2.211576 -4.804670 -10.708295 -10.617469 -54.667976 -76.781855 80.711373 -3.759464 3.481336 -16.992227 -5.005849 9.575973 -1.726244 16.215832 -5.456991 1.308693 72.753802 -73.553292 -95.701284 -3.313080 11.581345 7.829764 -17.779116 -63.201203 10.572722 -29.658601 73.918582 -29.237893 -1.382554 -7.750379 -3.630426 -0.292795 0.668925 -0.109345 -0.048405 -65.404951 17.626477 41.465545 65.567852 34.710424 -18.161048 -10.317883 3.280353 -0.035912 -0.756730 -0.009768
-79.949889 57.327064 3.994122 159.601214 -9.010522 0.465108 2.214253 6.888421 0.403395 0.074890 0.264434 -0.014664 0.170057 0.536714 -0.021040 1.977941 6.507681 -0.172204 1.370480 17.180047 -1.201137 2.981787 -3.799568 -2.705424 2.446089 8.749674 2.206818 -4.747609 -10.685303 -10.685686 -54.594489 -76.544419 80.554858 -4.170242 2.944707 -16.817775 -5.015529 9.631637 -1.740898 16.185470 -5.554361 1.344698 72.771220 -73.590132 -95.768722 -3.163387 11.393567 7.456524 -17.668755 -63.124321 10.561623 -29.731859 73.879021 -29.324502 -1.416040 -7.727478 -3.616715 -0.282728 0.674040 -0.082033 -0.106132 -65.334795 17.711478 41.460625 65.578679 34.719489 -18.136793 -10.322140 3.279234 -0.024545 -0.737466 -0.016979
-79.970104 57.325075 4.008285 159.539355 -9.042197 0.475162 2.257194 6.889003 0.398510 0.086642 0.283520 -0.010933 0.162227 0.529092 -0.023529 1.994689 6.540938 -0.162007 1.378204 17.182103 -1.214495 3.041835 -3.775843 -2.763553 2.448086 8.935174 2.240509 -4.705471 -10.816101 -10.750581 -54.707220 -76.267122 80.614829 -4.569654 2.390188 -16.538556 -5.013491 9.695264 -1.744675 16.153449 -5.639181 1.362714 72.849109 -73.677425 -95.865610 -3.041463 11.222990 7.044190 -17.549004 -63.098440 10.535616 -29.597111 73.837509 -29.254708 -1.407948 -7.680076 -3.532765 -0.341496 0.686196 -0.111263 -0.106697 -65.321514 17.727844 41.510004 65.591287 34.784035 -18.090116 -10.290863 3.268321 -0.007324 -0.757778 -0.021283
-79.986852 57.325201 4.019186 159.492628 -9.106935 0.464121 2.296482 6.926104 0.421495 0.091528 0.299356 -0.012124 0.160579 0.525097 -0.020906 2.003222 6.571118 -0.156666 1.403142 17.200557 -1.230480 3.086556 -3.786320 -2.817927 2.449500 9.077936 2.261241 -4.690790 -10.886279 -10.780146 -54.938311 -75.950826 80.824844 -4.955238 1.835379 -16.170145 -5.004291 9.764959 -1.748103 16.129309 -5.723666 1.354611 73.016696 -73.795489 -96.016342 -3.002181 11.101487 6.553442 -17.448192 -63.031362 10.513572 -29.522127 73.795965 -29.217435 -1.411737 -7.645973 -3.489423 -0.362090 0.683935 -0.132273 -0.139657 -65.264891 17.785264 41.521390 65.598477 34.806613 -18.085301 -10.290287 3.255586 0.004580 -0.735175 -0.011603
